<?xml version="1.0" encoding="UTF-8" standalone="no" ?>
<!DOCTYPE svg PUBLIC "-//W3C//DTD SVG 1.1//EN" "http://www.w3.org/Graphics/SVG/1.1/DTD/svg11.dtd">
<svg xmlns="http://www.w3.org/2000/svg" xmlns:xlink="http://www.w3.org/1999/xlink" version="1.1" width="1080" height="1080" viewBox="0 0 1080 1080" xml:space="preserve">
<desc>Created with Fabric.js 5.2.4</desc>
<defs>
</defs>
<g transform="matrix(1 0 0 1 540 540)" id="1ce01043-27a5-48a8-8dd7-ba1bd3849c41"  >
<rect style="stroke: none; stroke-width: 1; stroke-dasharray: none; stroke-linecap: butt; stroke-dashoffset: 0; stroke-linejoin: miter; stroke-miterlimit: 4; fill: rgb(255,255,255); fill-rule: nonzero; opacity: 1; visibility: hidden;" vector-effect="non-scaling-stroke"  x="-540" y="-540" rx="0" ry="0" width="1080" height="1080" />
</g>
<g transform="matrix(1 0 0 1 540 540)" id="ad4c4e2a-5d53-43de-aae2-78e82ac265b7"  >
</g>
<g transform="matrix(1 0 0 1 540 540)" id="f322b49f-f0fb-49f5-9158-8fe7143c8bfe"  >
<path style="stroke: rgb(0,0,0); stroke-width: 0; stroke-dasharray: none; stroke-linecap: butt; stroke-dashoffset: 0; stroke-linejoin: miter; stroke-miterlimit: 4; fill: rgb(255,255,255); fill-rule: nonzero; opacity: 1;" vector-effect="non-scaling-stroke"  transform=" translate(-480, 480)" d="M 160 -160 Q 127 -160 103.5 -183.5 Q 80 -207 80 -240 L 80 -720 Q 80 -753 103.5 -776.5 Q 127 -800 160 -800 L 800 -800 Q 833 -800 856.5 -776.5 Q 880 -753 880 -720 L 880 -240 Q 880 -207 856.5 -183.5 Q 833 -160 800 -160 L 160 -160 Z M 160 -240 L 800 -240 L 800 -640 L 160 -640 L 160 -240 Z M 300 -280 L 244 -336 L 347 -440 L 243 -544 L 300 -600 L 460 -440 L 300 -280 Z M 480 -280 L 480 -360 L 720 -360 L 720 -280 L 480 -280 Z" stroke-linecap="round" />
</g>
</svg>